<svg width="29" height="32" viewBox="0 0 29 32" fill="none" xmlns="http://www.w3.org/2000/svg">
<path d="M23.4452 12.048V10.048C23.4452 5.728 22.5092 0 14.402 0C6.29475 0 5.35875 5.728 5.35875 10.048V12.048C1.32675 12.608 0.00195312 14.88 0.00195312 20.464V23.44C0.00195312 30 1.80195 32 7.70595 32H21.098C27.002 32 28.802 30 28.802 23.44V20.464C28.802 14.88 27.4772 12.608 23.4452 12.048ZM14.402 26.784C11.9972 26.784 10.0532 24.608 10.0532 21.952C10.0532 19.28 12.0116 17.12 14.402 17.12C16.7924 17.12 18.7508 19.296 18.7508 21.952C18.7508 24.624 16.8068 26.784 14.402 26.784ZM7.70595 11.904C7.59075 11.904 7.48995 11.904 7.37475 11.904V10.048C7.37475 5.36 8.56995 2.24 14.402 2.24C20.234 2.24 21.4292 5.36 21.4292 10.048V11.92C21.314 11.92 21.2132 11.92 21.098 11.92H7.70595V11.904Z" fill="#656565"/>
</svg>
