<svg width="14" height="10" viewBox="0 0 14 10" fill="none" xmlns="http://www.w3.org/2000/svg">
<path d="M13.25 4.99902C13.25 5.0487 13.2351 5.09695 13.208 5.1377L13.1768 5.17578L9.1709 9.18164L9.16504 9.18848C9.14222 9.21296 9.11453 9.23244 9.08398 9.24609C9.05332 9.25976 9.0199 9.26699 8.98633 9.26758C8.95292 9.26816 8.91967 9.26246 8.88867 9.25C8.85755 9.23743 8.82843 9.21808 8.80469 9.19434C8.78114 9.17068 8.7625 9.14228 8.75 9.11133C8.73751 9.08032 8.73186 9.0471 8.73242 9.01367C8.73301 8.98011 8.74024 8.94668 8.75391 8.91602C8.76757 8.88544 8.78702 8.85779 8.81152 8.83496L8.81836 8.8291L8.82422 8.82227L12.3975 5.24902H1.50098C1.43471 5.24902 1.3711 5.22261 1.32422 5.17578C1.27734 5.1289 1.25098 5.06533 1.25098 4.99902C1.25102 4.93277 1.27737 4.86911 1.32422 4.82227C1.37108 4.77553 1.43478 4.74902 1.50098 4.74902H12.3975L8.82422 1.17578L8.81836 1.16895L8.81152 1.16309C8.78702 1.14022 8.76754 1.11264 8.75391 1.08203C8.74032 1.05152 8.73308 1.01874 8.73242 0.985352C8.73183 0.951784 8.73743 0.917848 8.75 0.886719C8.76253 0.855721 8.78108 0.827385 8.80469 0.803711C8.82843 0.77997 8.85754 0.761597 8.88867 0.749023C8.91974 0.736502 8.95283 0.729882 8.98633 0.730469C9.0199 0.731061 9.05332 0.738289 9.08398 0.751953C9.11451 0.765584 9.14222 0.785128 9.16504 0.80957L9.1709 0.816406L13.1768 4.82227C13.2235 4.8691 13.25 4.93283 13.25 4.99902Z" fill="#464646" stroke="#F8F8F8"/>
</svg>
